<svg width="178" height="52" fill="none" xmlns="http://www.w3.org/2000/svg"><g clip-path="url('#clip0_131_51')" fill="#fff"><path fill-rule="evenodd" clip-rule="evenodd" d="M24.757 52h19.028l12.13-11.716V23.72L38.12 6.531l-8.578 8.282 22.356 21.591c.687.663.882 1.61.51 2.477-.372.868-1.202 1.403-2.174 1.403H20.057c-4.085 0-7.427-3.227-7.43-7.172V0H.5v28.572L24.757 52Z"/><path d="M153.454 33.36v3.113h6.359c.446 0 .85-.174 1.138-.456h.003a1.52 1.52 0 0 0-.003-2.199 1.636 1.636 0 0 0-1.138-.455h-6.359v-.003Zm8.905-.901a3.41 3.41 0 0 1 1.055 2.459 3.4 3.4 0 0 1-1.058 2.456 3.63 3.63 0 0 1-2.543 1.019h-8.347V26.408h7.08c.994 0 1.895.39 2.546 1.019a3.42 3.42 0 0 1 1.055 2.459 2.965 2.965 0 0 1-.833 1.929c.327.08.756.365 1.048.644h-.003Zm-3.813-1.019c.446 0 .85-.173 1.139-.455h.003a1.527 1.527 0 0 0 0-2.199h-.003a1.637 1.637 0 0 0-1.139-.455h-5.092v3.112h5.092v-.003Zm-59.638-3.112H91.35v3.112h6.199v1.92H91.35v3.113h7.558v1.92H89.36V26.408h9.55v1.92Zm78.595 0h-7.557v3.112h6.198v1.92h-6.198v3.113h7.557v1.92h-9.549V26.408h9.549v1.92Zm-62.315 4.66v3.813l-.379.291a7.036 7.036 0 0 1-2.186 1.115h-.004a8.634 8.634 0 0 1-2.552.387c-1.873 0-3.553-.647-4.759-1.76-1.189-1.095-1.914-2.631-1.914-4.437 0-1.805.728-3.348 1.914-4.438 1.219-1.118 2.915-1.759 4.788-1.759a7.59 7.59 0 0 1 2.604.45c.82.297 1.561.74 2.18 1.306l-1.366 1.387a4.493 4.493 0 0 0-1.51-.9 5.612 5.612 0 0 0-1.905-.32c-1.36 0-2.568.446-3.418 1.227-.802.734-1.292 1.784-1.292 3.05 0 1.267.49 2.307 1.292 3.05.84.775 2.036 1.227 3.389 1.227.651 0 1.318-.096 1.943-.291.42-.133.824-.31 1.19-.536V32.99h1.988-.003Zm7.657-6.58v10.065h7.641v1.92h-9.629V26.408h1.988ZM74.863 33.36v3.113h6.358c.446 0 .85-.174 1.138-.456h.004a1.52 1.52 0 0 0-.003-2.199 1.636 1.636 0 0 0-1.139-.455h-6.358v-.003Zm8.904-.901a3.41 3.41 0 0 1 1.055 2.459c0 .96-.404 1.824-1.058 2.456a3.63 3.63 0 0 1-2.543 1.019h-8.347V26.408h7.08c.995 0 1.896.39 2.547 1.019a3.421 3.421 0 0 1 1.054 2.459 2.964 2.964 0 0 1-.833 1.929c.327.08.757.365 1.048.644h-.003Zm-3.813-1.019c.446 0 .85-.173 1.139-.455h.003a1.525 1.525 0 0 0 0-2.199h-.003a1.636 1.636 0 0 0-1.139-.455h-5.091v3.112h5.091v-.003Zm65.151-3.537c1.289 1.19 1.933 2.847 1.933 4.497s-.644 3.308-1.933 4.497c-1.116 1.028-2.697 1.7-4.736 1.7-2.04 0-3.621-.669-4.736-1.7-1.289-1.19-1.934-2.846-1.934-4.497 0-1.65.645-3.307 1.934-4.496 1.115-1.029 2.696-1.7 4.736-1.7 2.039 0 3.62.668 4.736 1.7Zm-.048 4.497c0-1.152-.44-2.298-1.322-3.11-.766-.705-1.885-1.167-3.37-1.167-1.484 0-2.603.462-3.37 1.168-.878.811-1.321 1.957-1.321 3.11 0 1.148.44 2.297 1.321 3.108.767.707 1.886 1.168 3.37 1.168 1.485 0 2.604-.461 3.37-1.167.879-.812 1.322-1.958 1.322-3.11Z"/></g><defs><clipPath id="clip0_131_51"><path fill="#fff" transform="translate(.5)" d="M0 0h177v52H0z"/></clipPath></defs></svg>