<svg width="222" height="65" fill="none" xmlns="http://www.w3.org/2000/svg"><g clip-path="url('#clip0_111_5511')" fill="#fff"><path fill-rule="evenodd" clip-rule="evenodd" d="M30.787 65h23.758L69.69 50.355V29.65L47.47 8.164 36.76 18.516l27.913 26.989c.857.828 1.101 2.013.637 3.097-.465 1.084-1.502 1.754-2.715 1.754H24.918c-5.1 0-9.272-4.034-9.276-8.966V0H.5v35.715L30.787 65Z"/><path d="M191.477 41.7v3.89h7.939c.556 0 1.061-.217 1.421-.569h.004a1.905 1.905 0 0 0-.004-2.748 2.041 2.041 0 0 0-1.421-.57h-7.939V41.7Zm11.118-1.127a4.264 4.264 0 0 1 1.317 3.074c0 1.2-.504 2.28-1.321 3.07a4.53 4.53 0 0 1-3.175 1.273h-10.421V33.01h8.84a4.56 4.56 0 0 1 3.178 1.273 4.278 4.278 0 0 1 1.318 3.073c-.064 1.015-.449 1.789-1.041 2.412.408.1.945.457 1.309.805h-.004Zm-4.76-1.273c.556 0 1.06-.217 1.421-.57h.004a1.908 1.908 0 0 0 0-2.748h-.004a2.043 2.043 0 0 0-1.421-.569h-6.358v3.89h6.358V39.3Zm-74.464-3.89h-9.436v3.89h7.739v2.4h-7.739v3.89h9.436v2.4h-11.923V33.01h11.923v2.4Zm98.133 0h-9.437v3.89h7.739v2.4h-7.739v3.89h9.437v2.4h-11.923V33.01h11.923v2.4Zm-77.806 5.825v4.766l-.473.363c-.809.624-1.745 1.084-2.73 1.394h-.004a10.773 10.773 0 0 1-3.187.484c-2.338 0-4.436-.81-5.942-2.199-1.485-1.37-2.39-3.29-2.39-5.547 0-2.257.909-4.185 2.39-5.547 1.522-1.398 3.64-2.2 5.978-2.2 1.145 0 2.246.194 3.251.562a8.105 8.105 0 0 1 2.722 1.634l-1.705 1.734a5.616 5.616 0 0 0-1.886-1.127 6.993 6.993 0 0 0-2.378-.398c-1.698 0-3.207.557-4.268 1.533-1.001.917-1.614 2.23-1.614 3.813 0 1.583.613 2.884 1.614 3.813 1.049.968 2.542 1.533 4.232 1.533.812 0 1.645-.12 2.426-.364a6.632 6.632 0 0 0 1.485-.67v-3.577h2.483-.004Zm9.56-8.226V45.59h9.541v2.4h-12.023V33.01h2.482Zm-59.91 8.69v3.891h7.939c.557 0 1.061-.217 1.421-.569h.004a1.905 1.905 0 0 0-.004-2.748 2.04 2.04 0 0 0-1.421-.57h-7.939V41.7Zm11.118-1.126a4.264 4.264 0 0 1 1.317 3.074c0 1.2-.504 2.28-1.321 3.07a4.53 4.53 0 0 1-3.175 1.273H90.866V33.01h8.84c1.241 0 2.366.487 3.179 1.273a4.281 4.281 0 0 1 1.317 3.073c-.064 1.015-.449 1.789-1.041 2.412.408.1.945.457 1.309.805h-.004Zm-4.76-1.273c.556 0 1.061-.217 1.421-.57h.004a1.91 1.91 0 0 0 0-2.748h-.004a2.041 2.041 0 0 0-1.421-.569h-6.358v3.89h6.358V39.3Zm81.345-4.421c1.61 1.486 2.415 3.557 2.415 5.62 0 2.064-.805 4.135-2.415 5.621-1.393 1.286-3.367 2.126-5.913 2.126-2.546 0-4.52-.836-5.913-2.126-1.61-1.486-2.415-3.557-2.415-5.62 0-2.064.805-4.135 2.415-5.621 1.393-1.285 3.367-2.125 5.913-2.125 2.546 0 4.52.836 5.913 2.125Zm-.06 5.62c0-1.44-.548-2.872-1.649-3.886-.957-.883-2.354-1.46-4.208-1.46s-3.251.578-4.208 1.46c-1.097 1.014-1.649 2.447-1.649 3.887 0 1.436.548 2.872 1.649 3.886.957.883 2.354 1.46 4.208 1.46s3.251-.577 4.208-1.46c1.097-1.014 1.649-2.446 1.649-3.886Z"/></g><defs><clipPath id="clip0_111_5511"><path fill="#fff" transform="translate(.5)" d="M0 0h221v65H0z"/></clipPath></defs></svg>