<svg width="178" height="52" fill="none" xmlns="http://www.w3.org/2000/svg"><g clip-path="url('#clip0_131_51')" fill="#fff"><path fill-rule="evenodd" clip-rule="evenodd" d="M24.757 52h19.028l12.13-11.716V23.72L38.12 6.531l-8.578 8.282 22.356 21.591c.687.663.882 1.61.51 2.477-.372.868-1.202 1.403-2.174 1.403H20.057c-4.085 0-7.427-3.227-7.43-7.172V0H.5v28.572L24.757 52Z"/><path d="M153.454 33.36v3.112h6.359c.446 0 .85-.173 1.138-.455h.003a1.52 1.52 0 0 0-.003-2.199 1.637 1.637 0 0 0-1.138-.455h-6.359v-.003Zm8.905-.901a3.41 3.41 0 0 1 1.055 2.458 3.4 3.4 0 0 1-1.058 2.456 3.63 3.63 0 0 1-2.543 1.02h-8.347V26.406h7.08c.994 0 1.895.39 2.546 1.02a3.42 3.42 0 0 1 1.055 2.458 2.965 2.965 0 0 1-.833 1.93c.327.08.756.365 1.048.643h-.003Zm-3.813-1.02c.446 0 .85-.173 1.139-.455h.003a1.527 1.527 0 0 0 0-2.198h-.003a1.637 1.637 0 0 0-1.139-.456h-5.092v3.113h5.092v-.003Zm-59.638-3.112H91.35v3.113h6.199v1.92H91.35v3.112h7.558v1.92H89.36V26.407h9.55v1.92Zm78.595 0h-7.557v3.113h6.198v1.92h-6.198v3.112h7.557v1.92h-9.549V26.407h9.549v1.92Zm-62.315 4.661V36.8l-.379.292a7.036 7.036 0 0 1-2.186 1.114h-.004a8.634 8.634 0 0 1-2.552.387c-1.873 0-3.553-.647-4.759-1.759-1.189-1.096-1.914-2.632-1.914-4.437 0-1.806.728-3.348 1.914-4.438 1.219-1.118 2.915-1.76 4.788-1.76a7.59 7.59 0 0 1 2.604.45c.82.297 1.561.74 2.18 1.307l-1.366 1.387a4.491 4.491 0 0 0-1.51-.901 5.61 5.61 0 0 0-1.905-.32c-1.36 0-2.568.447-3.418 1.227-.802.734-1.292 1.784-1.292 3.05 0 1.267.49 2.308 1.292 3.051.84.774 2.036 1.226 3.389 1.226.651 0 1.318-.096 1.943-.29.42-.134.824-.31 1.19-.536v-2.862h1.988-.003Zm7.657-6.58v10.064h7.641v1.92h-9.629V26.407h1.988ZM74.863 33.36v3.112h6.358c.446 0 .85-.173 1.138-.455h.004a1.525 1.525 0 0 0-.004-2.199 1.636 1.636 0 0 0-1.138-.455h-6.358v-.003Zm8.904-.901a3.41 3.41 0 0 1 1.055 2.458c0 .96-.404 1.825-1.058 2.456a3.63 3.63 0 0 1-2.543 1.02h-8.347V26.406h7.08c.995 0 1.896.39 2.547 1.02a3.421 3.421 0 0 1 1.054 2.458 2.964 2.964 0 0 1-.833 1.93c.327.08.757.365 1.048.643h-.003Zm-3.813-1.02c.446 0 .85-.173 1.139-.455h.003a1.525 1.525 0 0 0 0-2.198h-.003a1.636 1.636 0 0 0-1.139-.456h-5.091v3.113h5.091v-.003Zm65.151-3.536c1.289 1.19 1.933 2.846 1.933 4.497 0 1.65-.644 3.307-1.933 4.496-1.116 1.029-2.697 1.7-4.736 1.7-2.04 0-3.621-.668-4.736-1.7-1.289-1.189-1.934-2.846-1.934-4.496 0-1.65.645-3.308 1.934-4.497 1.115-1.028 2.696-1.7 4.736-1.7 2.039 0 3.62.669 4.736 1.7Zm-.048 4.497c0-1.152-.44-2.298-1.322-3.11-.766-.706-1.885-1.167-3.37-1.167-1.484 0-2.603.461-3.37 1.167-.878.812-1.321 1.958-1.321 3.11 0 1.149.44 2.298 1.321 3.109.767.706 1.886 1.167 3.37 1.167 1.485 0 2.604-.46 3.37-1.167.879-.811 1.322-1.957 1.322-3.11Z"/></g><defs><clipPath id="clip0_131_51"><path fill="#fff" transform="translate(.5)" d="M0 0h177v52H0z"/></clipPath></defs></svg>