<svg width="157" height="46" fill="none" xmlns="http://www.w3.org/2000/svg"><path fill-rule="evenodd" clip-rule="evenodd" d="M21.38 46h16.77l10.69-10.364V20.982L33.156 5.778l-7.56 7.325 19.703 19.1c.605.587.778 1.425.45 2.192-.328.767-1.06 1.241-1.916 1.241H17.236c-3.6 0-6.545-2.854-6.548-6.345V0H0v25.275L21.38 46Z" fill="#fff"/><path d="M134.807 29.51v2.754h5.604c.393 0 .749-.154 1.004-.403h.002a1.35 1.35 0 0 0-.002-1.945 1.443 1.443 0 0 0-1.004-.403h-5.604v-.002Zm7.848-.797c.574.556.93 1.326.93 2.176a3.01 3.01 0 0 1-.933 2.172 3.19 3.19 0 0 1-2.241.901h-7.356V23.36h6.24c.876 0 1.67.346 2.244.902a3.03 3.03 0 0 1 .93 2.175 2.632 2.632 0 0 1-.735 1.707c.288.07.667.323.924.57h-.003Zm-3.36-.9c.393 0 .749-.154 1.003-.404h.003a1.353 1.353 0 0 0 0-1.945h-.003a1.438 1.438 0 0 0-1.003-.402h-4.488v2.753h4.488v-.003Zm-52.562-2.754H80.07v2.753h5.463v1.699h-5.463v2.753h6.662v1.698h-8.416V23.36h8.416v1.699Zm69.27 0h-6.661v2.753h5.463v1.699h-5.463v2.753h6.661v1.698h-8.416V23.36h8.416v1.699Zm-54.922 4.123v3.372l-.334.258a6.193 6.193 0 0 1-1.927.986h-.003a7.584 7.584 0 0 1-2.25.343c-1.65 0-3.13-.573-4.193-1.557-1.049-.97-1.688-2.328-1.688-3.925 0-1.598.642-2.962 1.688-3.926 1.073-.99 2.568-1.556 4.219-1.556.808 0 1.585.137 2.295.397a5.712 5.712 0 0 1 1.921 1.156l-1.204 1.227a3.961 3.961 0 0 0-1.33-.797 4.924 4.924 0 0 0-1.68-.282c-1.198 0-2.263.395-3.012 1.085-.707.65-1.139 1.578-1.139 2.698 0 1.12.432 2.041 1.139 2.699.74.685 1.795 1.085 2.987 1.085.574 0 1.162-.085 1.713-.258a4.68 4.68 0 0 0 1.048-.474v-2.531h1.752-.002Zm6.748-5.822v8.904h6.735v1.698h-8.487V23.36h1.752Zm-42.29 6.15v2.754h5.605a1.43 1.43 0 0 0 1.003-.403h.003a1.352 1.352 0 0 0-.003-1.945 1.44 1.44 0 0 0-1.003-.403H65.54v-.002Zm7.849-.797c.573.556.93 1.326.93 2.176 0 .849-.356 1.613-.933 2.172a3.192 3.192 0 0 1-2.241.901h-7.356V23.36h6.24c.876 0 1.67.346 2.243.902.574.558.93 1.328.93 2.175a2.626 2.626 0 0 1-.734 1.707c.288.07.666.323.924.57h-.003Zm-3.36-.9a1.43 1.43 0 0 0 1.003-.404h.003a1.352 1.352 0 0 0 0-1.945h-.003a1.44 1.44 0 0 0-1.003-.402H65.54v2.753h4.488v-.003Zm57.42-3.13c1.136 1.052 1.704 2.518 1.704 3.978 0 1.46-.568 2.926-1.704 3.978-.983.91-2.377 1.504-4.174 1.504-1.797 0-3.191-.592-4.174-1.504-1.136-1.052-1.704-2.517-1.704-3.978 0-1.46.568-2.926 1.704-3.978.983-.909 2.377-1.503 4.174-1.503 1.797 0 3.191.591 4.174 1.503Zm-.042 3.978c0-1.019-.388-2.032-1.165-2.75-.675-.625-1.661-1.033-2.97-1.033-1.308 0-2.295.408-2.97 1.033-.774.718-1.164 1.731-1.164 2.75 0 1.017.387 2.033 1.164 2.75.675.625 1.662 1.034 2.97 1.034 1.309 0 2.295-.409 2.97-1.033.775-.718 1.165-1.732 1.165-2.75Z" fill="#fff"/></svg>